<svg width="72" height="72" viewBox="0 0 72 72" fill="none" xmlns="http://www.w3.org/2000/svg">
<path d="M64.71 43.8415C64.7325 43.6277 64.8 43.4252 64.8 43.2114C64.8 39.2402 61.5712 36.0114 57.6 36.0114C56.1825 36.0114 54.8775 36.4389 53.7637 37.1364C51.7837 32.7714 47.4075 29.7114 42.3 29.7114C35.3475 29.7114 29.7 35.3477 29.7 42.3114C29.7 42.6489 29.7787 42.9639 29.8012 43.2902C24.2212 43.7064 19.8 48.319 19.8 54.0115C19.8 59.974 24.6375 64.8114 30.6 64.8114H61.2C67.1625 64.8114 72 59.974 72 54.0115C72 49.2752 68.94 45.304 64.71 43.8415ZM16.29 41.2989C11.3737 36.3827 11.3737 28.3952 16.29 23.4902C21.2062 18.5739 29.1938 18.5739 34.11 23.4902C35.2013 24.5814 36.0112 25.8414 36.6187 27.1689C37.7212 26.7527 38.88 26.4939 40.0725 26.3252L43.425 16.3239C43.875 14.9852 42.6037 13.7252 41.265 14.1639L31.3875 17.4602L26.7187 8.1452C26.1 6.8852 24.3 6.8852 23.67 8.1452L19.0125 17.4602L9.12375 14.1639C7.79625 13.7252 6.525 14.9964 6.96375 16.3239L10.26 26.2014L0.945 30.8702C-0.315 31.5002 -0.315 33.2889 0.945 33.9189L10.26 38.5764L6.96375 48.454C6.51375 49.7927 7.785 51.0527 9.12375 50.6139L17.685 47.7677C18.3712 46.3727 19.26 45.1015 20.34 43.9989C18.8662 43.3914 17.4825 42.4914 16.29 41.2989ZM15.75 32.3889C15.75 36.9789 19.0462 40.804 23.3887 41.6477C24.2887 41.119 25.2225 40.6577 26.2237 40.3314C26.8312 35.3477 29.7112 31.0502 33.8062 28.5189C32.3212 25.2452 29.025 22.9502 25.2 22.9502C19.9912 22.9502 15.75 27.1802 15.75 32.3889Z" fill="white"/>
</svg>
