<svg width="104" height="35" viewBox="0 0 104 35" fill="none" xmlns="http://www.w3.org/2000/svg">
<path d="M17.592 34L10.2 20.944H7.032V34H0.312V0.495999H12.888C15.48 0.495999 17.688 0.959999 19.512 1.888C21.336 2.784 22.696 4.016 23.592 5.584C24.52 7.12 24.984 8.848 24.984 10.768C24.984 12.976 24.344 14.976 23.064 16.768C21.784 18.528 19.88 19.744 17.352 20.416L25.368 34H17.592ZM7.032 15.904H12.648C14.472 15.904 15.832 15.472 16.728 14.608C17.624 13.712 18.072 12.48 18.072 10.912C18.072 9.376 17.624 8.192 16.728 7.36C15.832 6.496 14.472 6.064 12.648 6.064H7.032V15.904ZM42.63 34.336C40.294 34.336 38.182 33.936 36.294 33.136C34.438 32.336 32.966 31.184 31.878 29.68C30.79 28.176 30.23 26.4 30.198 24.352H37.398C37.494 25.728 37.974 26.816 38.838 27.616C39.734 28.416 40.95 28.816 42.486 28.816C44.054 28.816 45.286 28.448 46.182 27.712C47.078 26.944 47.526 25.952 47.526 24.736C47.526 23.744 47.222 22.928 46.614 22.288C46.006 21.648 45.238 21.152 44.31 20.8C43.414 20.416 42.166 20 40.566 19.552C38.39 18.912 36.614 18.288 35.238 17.68C33.894 17.04 32.726 16.096 31.734 14.848C30.774 13.568 30.294 11.872 30.294 9.76C30.294 7.776 30.79 6.048 31.782 4.576C32.774 3.104 34.166 1.984 35.958 1.216C37.75 0.415999 39.798 0.0159998 42.102 0.0159998C45.558 0.0159998 48.358 0.863999 50.502 2.56C52.678 4.224 53.878 6.56 54.102 9.568H46.71C46.646 8.416 46.15 7.472 45.222 6.736C44.326 5.968 43.126 5.584 41.622 5.584C40.31 5.584 39.254 5.92 38.454 6.592C37.686 7.264 37.302 8.24 37.302 9.52C37.302 10.416 37.59 11.168 38.166 11.776C38.774 12.352 39.51 12.832 40.374 13.216C41.27 13.568 42.518 13.984 44.118 14.464C46.294 15.104 48.07 15.744 49.446 16.384C50.822 17.024 52.006 17.984 52.998 19.264C53.99 20.544 54.486 22.224 54.486 24.304C54.486 26.096 54.022 27.76 53.094 29.296C52.166 30.832 50.806 32.064 49.014 32.992C47.222 33.888 45.094 34.336 42.63 34.336ZM58.68 17.2C58.68 13.904 59.416 10.96 60.888 8.368C62.392 5.744 64.424 3.712 66.984 2.272C69.576 0.799999 72.472 0.0639992 75.672 0.0639992C79.416 0.0639992 82.696 1.024 85.512 2.944C88.328 4.864 90.296 7.52 91.416 10.912H83.688C82.92 9.312 81.832 8.112 80.424 7.312C79.048 6.512 77.448 6.112 75.624 6.112C73.672 6.112 71.928 6.576 70.392 7.504C68.888 8.4 67.704 9.68 66.84 11.344C66.008 13.008 65.592 14.96 65.592 17.2C65.592 19.408 66.008 21.36 66.84 23.056C67.704 24.72 68.888 26.016 70.392 26.944C71.928 27.84 73.672 28.288 75.624 28.288C77.448 28.288 79.048 27.888 80.424 27.088C81.832 26.256 82.92 25.04 83.688 23.44H91.416C90.296 26.864 88.328 29.536 85.512 31.456C82.728 33.344 79.448 34.288 75.672 34.288C72.472 34.288 69.576 33.568 66.984 32.128C64.424 30.656 62.392 28.624 60.888 26.032C59.416 23.44 58.68 20.496 58.68 17.2ZM103.876 0.495999V34H97.1558V0.495999H103.876Z" fill="#F7F7F7"/>
</svg>
