<svg width="101" height="100" viewBox="0 0 101 100" fill="none" xmlns="http://www.w3.org/2000/svg">
<path d="M50.9502 0C23.3502 0 0.950195 22.4 0.950195 50C0.950195 77.6 23.3502 100 50.9502 100C78.5502 100 100.95 77.6 100.95 50C100.95 22.4 78.5502 0 50.9502 0ZM69.0002 31.7C74.3502 31.7 78.6502 36 78.6502 41.35C78.6502 46.7 74.3502 51 69.0002 51C63.6502 51 59.3502 46.7 59.3502 41.35C59.3002 36 63.6502 31.7 69.0002 31.7ZM39.0002 23.8C45.5002 23.8 50.8002 29.1 50.8002 35.6C50.8002 42.1 45.5002 47.4 39.0002 47.4C32.5002 47.4 27.2002 42.1 27.2002 35.6C27.2002 29.05 32.4502 23.8 39.0002 23.8ZM39.0002 69.45V88.2C27.0002 84.45 17.5002 75.2 13.3002 63.4C18.5502 57.8 31.6502 54.95 39.0002 54.95C41.6502 54.95 45.0002 55.35 48.5002 56.05C40.3002 60.4 39.0002 66.15 39.0002 69.45ZM50.9502 90C49.6002 90 48.3002 89.95 47.0002 89.8V69.45C47.0002 62.35 61.7002 58.8 69.0002 58.8C74.3502 58.8 83.6002 60.75 88.2002 64.55C82.3502 79.4 67.9002 90 50.9502 90Z" fill="#F7F7F7"/>
</svg>
