<svg width="20" height="24" viewBox="0 0 20 24" fill="none" xmlns="http://www.w3.org/2000/svg">
<path d="M9.99984 12C11.2832 12 12.3332 10.95 12.3332 9.66668C12.3332 8.38334 11.2832 7.33334 9.99984 7.33334C8.7165 7.33334 7.6665 8.38334 7.6665 9.66668C7.6665 10.95 8.7165 12 9.99984 12ZM9.99984 0.333344C14.8998 0.333344 19.3332 4.09001 19.3332 9.90001C19.3332 13.61 16.4748 17.9733 10.7698 23.0017C10.3265 23.3867 9.6615 23.3867 9.21817 23.0017C3.52484 17.9733 0.666504 13.61 0.666504 9.90001C0.666504 4.09001 5.09984 0.333344 9.99984 0.333344Z" fill="black"/>
</svg>
