<svg width="72" height="72" viewBox="0 0 72 72" fill="none" xmlns="http://www.w3.org/2000/svg">
<path d="M4.5 4.5C71.6625 4.5 56.0531 49.1203 56.1234 56.0109L67.5 67.5H63.8438L53.9438 57.4875C48.4594 58.0781 36.45 62.3391 23.7937 52.2844C11.1094 42.2297 11.8125 30.1922 4.5 4.5ZM15.7078 10.9688C8.71875 7.66406 14.9766 12.2625 14.9766 12.2625C21.3328 16.65 24.2578 22.6266 27.6609 29.1234C32.0906 37.5891 38.7703 48.7687 47.9391 52.7062C57.0797 56.6437 52.7484 54.4641 48.7828 51.5109C44.8172 48.5297 39.1922 39.2766 35.9859 33.2016C31.5281 24.7641 27.4078 16.5234 15.7078 10.9688Z" fill="white"/>
</svg>
