<svg width="72" height="72" viewBox="0 0 72 72" fill="none" xmlns="http://www.w3.org/2000/svg">
<g clip-path="url(#clip0_73_140)">
<path d="M70.6825 5.48461L66.5157 1.31789C66.0979 0.899922 65.6017 0.568362 65.0557 0.342152C64.5097 0.115942 63.9244 -0.000488281 63.3334 -0.000488281C62.7424 -0.000488281 62.1571 0.115942 61.6111 0.342152C61.065 0.568362 60.5689 0.899922 60.151 1.31789L53.6429 7.83305C53.0974 8.3771 52.6866 9.04119 52.4434 9.77227L50.7334 14.9065L40.0093 25.6305C38.2993 24.3987 36.4234 23.4171 34.3703 22.939C29.6664 21.8449 24.9484 22.8152 21.7309 26.0327C20.4183 27.3506 19.4421 28.965 18.8846 30.7394C18.0409 33.3494 15.6207 35.3365 12.9573 35.5854C9.62449 35.9046 6.52652 37.1955 4.15277 39.5848C-2.26536 45.9846 -1.11082 57.5158 6.69105 65.3135C14.4929 73.1112 26.0157 74.2502 32.4226 67.8546C34.8132 65.4808 36.1014 62.3843 36.4234 59.036C36.6709 56.3852 38.6579 53.9552 41.2651 53.1101C43.0399 52.5516 44.6546 51.575 45.9732 50.2624C49.1893 47.0449 50.1554 42.3368 49.067 37.6413C48.5903 35.5826 47.6087 33.7038 46.3726 31.9882L57.0939 21.267L62.2239 19.557C62.9549 19.3138 63.619 18.903 64.1631 18.3574L70.6782 11.8437C71.5212 11.0005 71.9951 9.85729 71.9959 8.66501C71.9967 7.47274 71.5243 6.32888 70.6825 5.48461ZM29.2501 49.5002C27.9151 49.5002 26.61 49.1043 25.5 48.3626C24.39 47.6209 23.5248 46.5667 23.0139 45.3333C22.503 44.0999 22.3694 42.7427 22.6298 41.4334C22.8903 40.124 23.5331 38.9213 24.4771 37.9773C25.4211 37.0332 26.6239 36.3904 27.9333 36.1299C29.2426 35.8695 30.5998 36.0031 31.8332 36.514C33.0666 37.0249 34.1208 37.8901 34.8625 39.0001C35.6042 40.1102 36.0001 41.4152 36.0001 42.7502C36.0001 44.5404 35.289 46.2573 34.0231 47.5232C32.7572 48.7891 31.0403 49.5002 29.2501 49.5002Z" fill="white"/>
</g>
<defs>
<clipPath id="clip0_73_140">
<rect width="72" height="72" fill="white"/>
</clipPath>
</defs>
</svg>
